<svg id="レイヤー_1" data-name="レイヤー 1" xmlns="http://www.w3.org/2000/svg" xmlns:xlink="http://www.w3.org/1999/xlink" viewBox="0 0 500 464.58"><defs><style>.cls-1,.cls-11,.cls-13,.cls-14,.cls-15,.cls-16,.cls-20,.cls-3,.cls-4,.cls-5,.cls-6{fill:none;}.cls-2{clip-path:url(#clip-path);}.cls-3{stroke:#00bfff;stroke-width:71px;}.cls-11,.cls-13,.cls-14,.cls-15,.cls-16,.cls-17,.cls-19,.cls-20,.cls-21,.cls-3,.cls-4,.cls-5,.cls-6,.cls-8,.cls-9{stroke-linecap:round;stroke-linejoin:round;}.cls-11,.cls-13,.cls-14,.cls-16,.cls-17,.cls-19,.cls-20,.cls-4,.cls-8,.cls-9{stroke:#231815;}.cls-4{stroke-width:61px;}.cls-21,.cls-5{stroke:#fff;}.cls-5,.cls-6{stroke-width:53px;}.cls-15,.cls-6{stroke:#ffea55;}.cls-6{opacity:0.5;}.cls-17,.cls-19,.cls-7{fill:#00bfff;}.cls-10,.cls-8{fill:#ffea55;}.cls-11,.cls-19,.cls-21,.cls-8,.cls-9{stroke-width:4.02px;}.cls-12,.cls-21,.cls-9{fill:#fff;}.cls-13{stroke-width:8px;}.cls-14{stroke-width:20px;}.cls-15{stroke-width:13px;}.cls-16,.cls-17{stroke-width:3px;}.cls-18{fill:#231815;}.cls-20{stroke-width:2px;}</style><clipPath id="clip-path"><rect class="cls-1" x="-12.48" y="-34.93" width="572.69" height="310"/></clipPath></defs><title>illust のコピー 3</title><g class="cls-2"><circle class="cls-3" cx="250" cy="213.78" r="176.87"/><circle class="cls-4" cx="250" cy="213.78" r="176.87"/><circle class="cls-5" cx="250" cy="213.78" r="176.87"/><circle class="cls-6" cx="250" cy="213.78" r="176.87"/><polygon class="cls-7" points="194.47 257.58 194.73 271.94 308.78 271.94 308.78 259.27 285.95 251.38 274.43 265.46 266.83 267.71 258.1 262.08 250.5 257.58 245.43 257.86 235.57 264.34 226.28 266.31 222.34 263.49 216.43 255.61 209.11 252.23 194.47 257.58"/><circle class="cls-8" cx="249.64" cy="34.33" r="15.87"/><circle class="cls-8" cx="189.58" cy="45.05" r="15.87"/><circle class="cls-8" cx="136.81" cy="75.65" r="15.87"/><circle class="cls-8" cx="97.69" cy="122.46" r="15.87"/><circle class="cls-8" cx="76.94" cy="179.83" r="15.87"/><circle class="cls-8" cx="422.92" cy="179.15" r="15.87"/><circle class="cls-8" cx="401.94" cy="121.87" r="15.87"/><circle class="cls-8" cx="362.64" cy="75.21" r="15.87"/><circle class="cls-8" cx="309.74" cy="44.81" r="15.87"/><rect class="cls-1" x="41.15" y="-31.02" width="417.7" height="252.66"/><circle class="cls-9" cx="250.36" cy="390.57" r="15.87"/><circle class="cls-9" cx="310.42" cy="379.86" r="15.87"/><circle class="cls-9" cx="363.19" cy="349.25" r="15.87"/><circle class="cls-9" cx="402.31" cy="302.44" r="15.87"/><circle class="cls-8" cx="423.06" cy="245.07" r="15.87"/><circle class="cls-8" cx="77.08" cy="245.75" r="15.87"/><circle class="cls-9" cx="98.06" cy="303.04" r="15.87"/><circle class="cls-9" cx="137.36" cy="349.7" r="15.87"/><circle class="cls-9" cx="190.26" cy="380.09" r="15.87"/><rect class="cls-1" x="41.15" y="203.27" width="417.7" height="252.66" transform="translate(500 659.2) rotate(180)"/></g><path class="cls-10" d="M496.15,331.87a10,10,0,0,0-10-10H472.66a10,10,0,0,1-10-10V281.19a10,10,0,0,0-10-10H47.34a10,10,0,0,0-10,10v30.68a10,10,0,0,1-10,10H13.85a10,10,0,0,0-10,10v69a10,10,0,0,0,10,10H27.34a10,10,0,0,1,10,10v30.69a10,10,0,0,0,10,10H452.66a10,10,0,0,0,10-10V420.87a10,10,0,0,1,10-10h13.49a10,10,0,0,0,10-10Z"/><path class="cls-11" d="M496.15,331.87a10,10,0,0,0-10-10H472.66a10,10,0,0,1-10-10V281.19a10,10,0,0,0-10-10H47.34a10,10,0,0,0-10,10v30.68a10,10,0,0,1-10,10H13.85a10,10,0,0,0-10,10v69a10,10,0,0,0,10,10H27.34a10,10,0,0,1,10,10v30.69a10,10,0,0,0,10,10H452.66a10,10,0,0,0,10-10V420.87a10,10,0,0,1,10-10h13.49a10,10,0,0,0,10-10Z"/><rect class="cls-12" x="67.23" y="295.88" width="365.54" height="140.97" rx="6"/><rect class="cls-13" x="67.23" y="295.88" width="365.54" height="140.97" rx="6"/><line class="cls-13" x1="189.83" y1="296.45" x2="189.83" y2="435.78"/><line class="cls-13" x1="311.39" y1="296.45" x2="311.39" y2="435.78"/><polygon class="cls-10" points="174.85 141.67 163.21 171.33 181.98 178.84 188.74 149.56 174.85 141.67"/><polygon class="cls-10" points="325.02 141.67 336.66 171.33 317.89 178.84 311.13 149.56 325.02 141.67"/><path class="cls-8" d="M166.73,158.47c-9-1.88-10.89,6-10.89,6s-20.27-3.38-14.44,17.7c0,0-10.52,1.89-7.24,13.37,0,0-8,9.11,4.41,17.36,0,0,3,18.77,23.66,12.38,0,0,10.88,19.53,28.15,1.51"/><path class="cls-8" d="M333.84,158.47c9-1.88,10.88,6,10.88,6s20.28-3.38,14.45,17.7c0,0,10.51,1.89,7.24,13.37,0,0,8,9.11-4.42,17.36,0,0-3,18.77-23.65,12.38,0,0-10.56,19-27.39,2.29"/><path class="cls-9" d="M330.85,176c-4.25-1.22-8.77.5-12.05,4.07-1.16-5.5-2.45-9.69-2.82-11.45-4.61-22-25.72-50.54-63.55-51.09h-2.86c-37.83.55-58.94,29.1-63.54,51.09-.4,1.9-1.89,6.66-3.11,12.85-3.31-4.51-8.42-6.84-13.2-5.47-6.52,1.88-9.92,9.92-7.6,18s9.48,13,16,11.16a10.29,10.29,0,0,0,3.37-1.7c1,10.44,5.13,20.88,15.81,27.69,9,5.74,15.78,9.37,21.4,9.59,5,9.23,18.85,13.5,31.81,13.5h1c13,0,26.84-4.27,31.82-13.5,5.62-.22,12.4-3.85,21.4-9.59,10.38-6.62,14.55-16.67,15.72-26.83a9.77,9.77,0,0,0,2,.84C329,207,336.13,202,338.45,194S337.36,177.91,330.85,176Z"/><polygon class="cls-10" points="219.78 161.93 226.31 175.16 240.92 177.29 230.35 187.59 232.85 202.14 219.78 195.27 206.71 202.14 209.21 187.59 198.64 177.29 213.25 175.16 219.78 161.93"/><path class="cls-14" d="M228,224.73s22.33,17.34,45.66,0"/><path class="cls-15" d="M228,224.73s22.33,17.34,45.66,0"/><path class="cls-16" d="M228,224.73s22.33,17.34,45.66,0"/><ellipse class="cls-17" cx="250.78" cy="203.46" rx="12.64" ry="11.69"/><circle class="cls-18" cx="218.89" cy="184.22" r="4.86"/><circle class="cls-18" cx="282.81" cy="184.22" r="4.86"/><path class="cls-19" d="M308.25,113.13V65.18L307.86,63c0-11.46-25.78-20.76-57.58-20.76S192.71,51.49,192.71,63l-.4,2.23v47.95c-29,5.56-48.17,15.15-48.17,26.06,0,17.17,47.52,31.1,106.14,31.1s106.15-13.93,106.15-31.1C356.43,128.28,337.25,118.69,308.25,113.13Z"/><path class="cls-8" d="M308.25,112.66v23.72c-71.22,23.09-115.94-1.45-115.94-1.45V112.66S249.5,138.88,308.25,112.66Z"/><path class="cls-20" d="M299.3,207.24s2-2.12,2.88-1.11c1.78,2,2,.88,4.44-.89"/><path class="cls-20" d="M195,207.24s2-2.12,2.88-1.11c1.78,2,2,.88,4.44-.89"/><path class="cls-11" d="M177,236.25l6.82,16.44a8.53,8.53,0,0,0,12.48,4.21L203,253a10.92,10.92,0,0,1,14.26,3.26l4.38,6.45a8.47,8.47,0,0,0,13,1.57l5.79-5.22a11.44,11.44,0,0,1,14.89-.05l6.49,5.77a9.08,9.08,0,0,0,13.48-1.35l5.23-6.94a11.89,11.89,0,0,1,14.76-3.16l7.6,4.2a9.16,9.16,0,0,0,12.91-4.27l7.77-17"/><path class="cls-9" d="M340.8,224.56S363.28,211.2,376,211.2s9.52,12.49,4.66,15.7a46.52,46.52,0,0,1-20.57,7.2c5,1.5,11.3,4.46,17.82,7.48,0,0,10,5.29,14.79,9.54a5.93,5.93,0,0,1,1.64,2.44,6.19,6.19,0,0,1-5.82,8.07c-8.37.16-24.93-6.06-28.11-7.17,0,0,39.92,10.5,36.58,22.27-3.18,9.06-37.53-5.73-40.39-7,0,0,32.12,9.06,29.26,19.4-2.32,8.37-34-7.63-35-7.95,0,0,21.56,10.25,20.68,16.22-.64,4.29-5.73,8-25.45-2.54,0,0-36.26-9.23-39.44-26.09s4.77-22.9,5.09-25.12S317.05,221.7,340.8,224.56Z"/><path class="cls-9" d="M348,244.92s-4.77,13.68-22.58,10.81"/><path class="cls-9" d="M159.2,224.56S136.72,211.2,124,211.2s-9.52,12.49-4.66,15.7a46.52,46.52,0,0,0,20.57,7.2c-5,1.5-11.3,4.46-17.82,7.48,0,0-10,5.29-14.79,9.54a5.93,5.93,0,0,0-1.64,2.44,6.19,6.19,0,0,0,5.82,8.07c8.37.16,24.93-6.06,28.11-7.17,0,0-39.92,10.5-36.58,22.27,3.18,9.06,37.53-5.73,40.39-7,0,0-32.12,9.06-29.26,19.4,2.32,8.37,34-7.63,35-7.95,0,0-21.56,10.25-20.68,16.22.64,4.29,5.73,8,25.45-2.54,0,0,36.26-9.23,39.44-26.09s-4.77-22.9-5.09-25.12S183,221.7,159.2,224.56Z"/><path class="cls-9" d="M152,244.92s4.77,13.68,22.58,10.81"/><circle class="cls-21" cx="34.76" cy="366.37" r="6.76"/><circle class="cls-21" cx="465.24" cy="366.37" r="6.76"/><path class="cls-11" d="M207.77,65.84s32.66,16.89,84.46,0"/></svg>